<?xml version="1.0" standalone="no"?>
<!DOCTYPE svg PUBLIC "-//W3C//DTD SVG 20010904//EN"
 "http://www.w3.org/TR/2001/REC-SVG-20010904/DTD/svg10.dtd">
<svg version="1.0" xmlns="http://www.w3.org/2000/svg"
 width="640.000000pt" height="640.000000pt" viewBox="0 0 640.000000 640.000000"
 preserveAspectRatio="xMidYMid meet">
<metadata>
Created by potrace 1.11, written by Peter Selinger 2001-2013
</metadata>
<g transform="translate(0.000000,640.000000) scale(0.100000,-0.100000)"
fill="#000000" stroke="none">
<path d="M2589 6396 c-2 -2 -20 -7 -39 -10 -122 -20 -267 -78 -379 -151 -82
-54 -291 -259 -291 -285 0 -3 -8 -15 -18 -26 -33 -36 -123 -185 -143 -236 -6
-16 -16 -25 -22 -21 -5 3 -7 1 -4 -4 4 -6 -8 -42 -25 -79 -34 -74 -35 -76 -37
-100 0 -8 -5 -13 -9 -10 -5 3 -9 0 -9 -7 0 -7 -13 -50 -29 -97 -15 -47 -29
-87 -29 -90 -1 -3 -5 -22 -9 -42 -5 -21 -12 -35 -17 -32 -5 3 -6 -2 -3 -11 4
-8 2 -21 -3 -28 -5 -6 -9 -19 -8 -27 1 -8 -4 -31 -11 -52 -7 -20 -10 -39 -7
-42 4 -3 2 -6 -3 -6 -5 0 -9 -12 -8 -27 1 -16 -2 -37 -7 -49 -8 -22 -17 -68
-25 -124 -8 -60 -9 -65 -15 -75 -4 -5 -5 -19 -3 -29 1 -11 0 -24 -3 -29 -3 -5
-6 -30 -6 -56 0 -25 -2 -50 -5 -55 -3 -5 -6 -43 -8 -85 -5 -144 -7 -160 -18
-154 -8 5 -8 3 0 -8 5 -8 9 -25 7 -39 -3 -31 -6 -186 -4 -260 l1 -55 30 34
c17 18 30 38 30 43 0 5 5 6 10 3 6 -3 10 1 10 9 0 9 4 16 8 16 4 0 16 14 26
30 9 17 22 28 27 25 5 -4 9 0 9 8 0 8 29 45 64 82 35 36 64 69 64 73 0 4 6 8
13 11 8 2 9 -1 4 -10 -5 -8 -4 -11 1 -6 9 8 10 12 13 38 0 6 8 9 15 6 11 -4
13 -1 9 10 -4 9 -2 14 3 10 12 -7 33 38 24 52 -10 17 1 72 13 64 6 -4 7 -1 1
8 -13 22 -14 43 -1 51 9 6 9 8 0 8 -13 0 -6 37 11 59 9 12 8 13 -3 7 -10 -6
-12 -4 -8 10 3 11 9 46 12 79 4 33 12 63 18 67 9 6 9 8 0 8 -13 0 -6 73 9 78
4 2 5 8 2 14 -4 6 0 14 7 19 12 7 11 9 -1 9 -13 0 -13 1 0 10 8 5 10 10 4 10
-10 0 13 109 33 160 9 22 10 28 12 51 1 12 5 17 13 13 7 -5 8 -3 3 6 -4 7 -2
16 6 21 9 5 10 9 2 9 -6 0 -9 9 -6 20 3 11 8 18 12 16 3 -2 7 10 8 26 1 17 7
36 13 43 5 6 6 16 2 20 -4 5 2 5 13 1 16 -6 18 -5 8 5 -15 15 -17 33 -3 24 5
-3 7 0 4 8 -3 8 5 25 18 37 13 13 17 20 11 16 -8 -4 -13 -1 -13 8 0 9 5 16 10
16 6 0 10 9 10 20 0 20 26 69 43 81 5 3 8 9 7 13 -4 12 22 66 31 66 5 0 9 7 9
15 0 8 9 24 19 34 11 11 17 21 15 24 -2 2 7 16 20 30 13 14 21 28 18 31 -3 3
2 6 11 6 9 0 19 5 23 12 4 7 3 8 -4 4 -7 -4 -12 -2 -12 3 0 10 14 15 33 12 5
-1 6 3 2 8 -8 13 26 52 38 44 6 -3 7 -1 4 4 -9 14 19 37 32 28 6 -3 8 0 5 8
-3 8 3 20 13 28 16 12 17 12 8 -1 -5 -9 1 -3 15 12 14 16 31 28 38 28 6 0 12
5 12 10 0 6 3 9 8 8 4 -2 19 7 32 20 14 13 33 21 42 18 10 -2 16 -1 13 4 -5 8
28 24 84 40 26 7 37 7 43 -3 5 -8 8 -7 8 6 0 20 36 24 43 5 3 -7 6 -4 6 7 1
16 3 17 10 5 6 -8 7 -18 4 -24 -3 -5 -1 -6 6 -2 6 4 9 11 6 16 -3 4 2 10 10
14 8 3 15 1 15 -4 0 -6 5 -10 11 -10 5 0 8 3 6 8 -3 4 10 7 29 7 19 0 34 -4
34 -9 0 -4 7 -5 16 -2 9 4 24 1 32 -6 10 -8 13 -9 9 -1 -5 7 0 9 13 6 11 -3
17 -10 13 -17 -4 -6 0 -5 9 2 11 9 18 10 23 2 3 -6 11 -8 16 -5 5 4 9 2 9 -4
0 -5 8 -8 18 -7 9 2 23 -4 30 -13 8 -9 11 -10 7 -4 -4 9 -1 11 9 7 9 -3 16
-10 16 -15 0 -5 9 -9 20 -9 21 0 69 -26 82 -45 4 -5 8 -7 8 -2 0 7 19 -2 85
-42 17 -10 30 -24 30 -32 1 -8 7 -13 13 -11 19 4 83 -48 75 -61 -3 -6 -1 -7 5
-3 16 10 96 -69 87 -85 -5 -8 -4 -10 3 -5 13 8 64 -33 56 -46 -3 -5 -2 -8 3
-7 17 3 36 -1 30 -7 -3 -3 10 -20 29 -36 19 -17 33 -37 30 -44 -3 -8 0 -11 8
-8 17 6 40 -22 30 -37 -4 -7 -3 -9 3 -6 6 4 19 -3 29 -15 12 -14 14 -18 4 -13
-8 5 4 -11 28 -35 23 -24 42 -49 42 -56 0 -6 7 -15 16 -18 10 -4 14 -12 10
-23 -4 -10 -4 -14 0 -11 7 8 34 -16 34 -30 0 -6 7 -13 16 -16 9 -4 14 -13 10
-22 -3 -8 -2 -13 2 -10 7 4 49 -49 54 -69 1 -5 10 -19 20 -29 14 -15 15 -22 6
-28 -10 -6 -9 -8 2 -8 12 0 72 -80 75 -100 0 -3 4 -11 8 -17 5 -8 3 -13 -5
-14 -7 0 -4 -4 8 -9 11 -4 26 -25 34 -49 7 -23 16 -41 20 -41 8 0 36 -71 32
-82 -1 -4 2 -8 7 -8 9 0 78 -133 83 -160 2 -8 7 -18 11 -21 5 -4 10 -18 10
-32 1 -14 7 -25 12 -24 6 1 9 -8 8 -20 -2 -14 2 -22 9 -20 7 1 13 -4 14 -10 1
-7 3 -15 4 -18 1 -3 3 -8 4 -12 1 -5 8 -18 15 -31 7 -13 10 -30 7 -38 -3 -8
-2 -13 3 -9 5 3 17 -19 26 -47 10 -29 21 -57 25 -63 4 -5 6 -18 5 -28 -2 -9 0
-15 4 -13 4 3 22 -41 41 -97 18 -56 36 -106 39 -112 6 -11 10 -28 14 -60 1
-11 9 -26 17 -33 13 -12 13 -13 0 -6 -13 7 -13 5 -2 -9 8 -9 11 -21 7 -27 -3
-5 -1 -10 6 -10 7 0 9 -10 7 -25 -3 -13 -2 -22 2 -20 6 4 14 -21 24 -75 1 -3
5 -10 9 -17 4 -6 8 -32 9 -57 1 -26 6 -40 10 -33 5 7 8 2 9 -15 2 -37 3 -41
13 -57 5 -8 4 -16 -5 -22 -11 -7 -10 -9 5 -9 16 0 17 -2 5 -17 -10 -11 -10
-14 -1 -9 8 5 12 0 12 -14 0 -13 -4 -19 -12 -14 -7 4 -8 3 -4 -5 4 -6 12 -9
17 -6 5 4 10 -4 10 -17 2 -39 6 -62 15 -82 5 -14 4 -17 -5 -11 -9 5 -8 0 2
-16 8 -13 13 -32 12 -41 -2 -10 1 -18 7 -18 7 0 6 -5 -1 -14 -9 -11 -9 -16 -1
-21 7 -4 10 -16 7 -26 -3 -12 -1 -17 6 -12 6 4 8 -2 5 -15 -4 -12 -2 -25 3
-28 5 -3 9 -12 9 -20 0 -8 -4 -13 -8 -10 -5 3 -9 -1 -9 -9 0 -8 4 -12 9 -9 4
3 9 -3 9 -13 3 -32 7 -57 17 -99 6 -27 6 -47 -1 -59 -6 -12 -6 -16 1 -11 14 8
21 -51 8 -65 -8 -9 -8 -10 1 -5 7 4 12 -1 12 -11 0 -29 10 -148 12 -148 1 0 3
-29 6 -65 2 -36 6 -99 9 -140 5 -82 5 -111 0 -153 -2 -15 0 -27 3 -27 4 0 7
-9 7 -20 0 -11 -4 -20 -9 -20 -5 0 -5 -6 1 -12 13 -16 13 -30 0 -45 -6 -8 -7
-13 -1 -13 11 0 11 -29 0 -47 -4 -6 -3 -14 1 -17 7 -4 9 -51 2 -51 -1 0 -3
-49 -5 -110 -5 -137 -14 -237 -31 -345 -3 -19 -6 -45 -6 -57 0 -13 -3 -23 -7
-23 -3 0 -6 -17 -7 -38 -1 -42 -12 -100 -21 -116 -4 -6 -8 -22 -9 -36 -2 -14
-4 -32 -7 -40 -2 -8 -7 -32 -11 -52 -5 -21 -11 -36 -15 -33 -4 2 -7 -6 -6 -18
1 -12 -2 -31 -6 -42 -5 -11 -13 -39 -19 -63 -7 -27 -15 -40 -22 -36 -7 4 -8 3
-4 -5 7 -10 -17 -91 -34 -116 -4 -5 -10 -22 -14 -37 -3 -16 -11 -28 -17 -28
-6 0 -8 -4 -4 -9 3 -5 -7 -31 -23 -58 -15 -26 -36 -65 -47 -86 -11 -21 -28
-47 -37 -57 -10 -11 -18 -23 -18 -27 0 -16 -68 -92 -75 -85 -5 4 -5 2 -2 -5 4
-6 -18 -34 -51 -64 -139 -127 -231 -174 -387 -195 -27 -3 -58 -8 -67 -9 -10
-2 -20 0 -23 4 -2 5 -15 6 -28 4 -56 -11 -335 83 -359 121 -4 6 -8 7 -8 3 0
-10 -133 82 -138 95 -2 4 -8 8 -14 8 -16 0 -107 88 -99 96 3 4 1 4 -5 1 -13
-7 -230 217 -227 233 2 5 -1 10 -6 10 -16 0 -123 149 -115 162 4 6 3 8 -4 5
-5 -4 -25 14 -44 40 -35 49 -187 291 -206 329 -7 13 -29 26 -59 34 -26 7 -54
17 -60 23 -7 5 -13 7 -13 4 0 -3 -72 19 -161 49 -89 30 -163 54 -164 54 -2 0
-3 -9 -2 -19 0 -11 5 -17 9 -15 4 3 8 -2 8 -10 0 -24 2 -30 17 -45 8 -7 12
-20 9 -28 -3 -8 -1 -11 4 -8 9 5 12 -1 9 -21 0 -4 3 -10 8 -13 17 -13 45 -73
39 -86 -3 -8 -2 -14 2 -12 4 1 9 -2 11 -8 3 -5 11 -16 18 -24 8 -7 11 -22 8
-35 -4 -14 -3 -17 3 -8 6 9 12 5 21 -15 7 -15 12 -30 11 -32 -1 -2 2 -7 8 -10
13 -9 65 -101 56 -101 -4 0 3 -9 15 -19 12 -11 21 -21 20 -23 -2 -2 5 -15 15
-30 10 -15 15 -32 11 -38 -4 -6 -1 -9 5 -8 7 2 17 -6 23 -17 7 -11 16 -23 21
-26 5 -4 5 -12 1 -19 -6 -9 -4 -11 5 -5 10 6 12 4 7 -9 -4 -10 -3 -15 3 -11
11 7 32 -29 22 -40 -4 -5 -1 -5 6 -1 7 4 15 0 19 -11 4 -10 14 -24 22 -31 13
-11 13 -12 1 -6 -8 4 -4 -4 10 -17 36 -35 75 -91 72 -101 -1 -5 2 -7 7 -4 5 3
15 -2 22 -11 12 -14 12 -16 -1 -8 -8 4 4 -9 28 -29 23 -21 42 -42 42 -48 0 -5
14 -23 30 -38 17 -15 29 -34 27 -42 -2 -7 -2 -10 0 -6 3 5 14 3 25 -3 11 -6
17 -13 14 -16 -3 -4 3 -13 15 -21 11 -8 18 -20 15 -28 -3 -8 0 -11 10 -7 14 5
49 -30 49 -49 0 -3 4 -10 9 -15 5 -5 6 -3 2 5 -12 21 13 13 26 -8 7 -11 18
-20 25 -20 7 0 13 -7 13 -15 0 -8 5 -15 11 -15 15 0 39 -26 31 -35 -4 -4 -2
-6 3 -5 24 5 35 -1 35 -20 0 -11 5 -20 11 -20 5 0 7 5 3 11 -4 7 -1 10 7 7 8
-3 13 -12 11 -19 -2 -8 0 -11 4 -7 8 9 85 -32 79 -42 -2 -3 12 -12 31 -19 18
-7 34 -17 34 -22 0 -5 7 -9 16 -9 10 0 14 -6 11 -14 -4 -10 -1 -13 9 -9 18 7
66 -16 58 -28 -3 -5 2 -6 11 -3 8 4 22 0 31 -7 9 -7 23 -14 32 -16 9 -1 18 -6
20 -12 2 -5 9 -8 16 -5 8 3 20 -1 27 -8 8 -7 20 -13 27 -14 28 -2 33 -4 27
-13 -3 -5 0 -13 6 -17 7 -4 9 -3 5 4 -3 6 -2 13 3 16 5 4 12 2 16 -4 3 -5 19
-10 34 -10 15 0 31 -3 34 -7 11 -10 50 -13 229 -17 102 -2 165 1 162 6 -4 6 7
7 25 5 17 -3 29 -2 26 3 -8 13 22 19 35 7 8 -8 11 -8 7 -1 -7 12 67 39 82 30
5 -3 11 1 14 9 4 8 15 12 27 10 13 -3 18 0 14 7 -5 8 -1 9 10 5 9 -4 15 -3 12
2 -7 11 22 23 35 15 5 -3 9 -2 8 3 -3 20 2 27 11 13 8 -13 10 -12 10 4 0 12 5
16 16 12 10 -4 13 -2 8 6 -5 8 -2 9 10 5 9 -4 15 -3 12 2 -3 5 1 14 9 21 8 7
15 9 15 4 0 -5 7 2 16 14 16 23 41 31 28 10 -4 -8 -3 -10 2 -5 5 5 9 12 9 15
1 12 57 67 66 65 5 -2 9 2 9 8 0 13 62 74 72 71 5 -1 7 1 6 6 -3 9 28 53 64
93 15 16 24 29 20 29 -4 0 0 5 8 10 8 5 15 15 15 22 1 7 7 12 14 10 7 -1 10 2
7 7 -4 5 1 16 9 25 9 8 15 18 15 21 -1 14 58 104 64 98 4 -4 4 1 0 11 -5 13
-4 17 4 12 8 -5 10 -1 5 10 -5 13 -3 15 7 9 8 -5 11 -4 6 3 -8 13 24 83 36 76
4 -3 5 1 3 9 -6 15 19 70 28 61 3 -3 4 2 3 12 -2 10 3 29 11 43 7 15 13 32 13
39 0 6 4 12 10 12 5 0 7 7 4 15 -4 8 -2 15 2 15 5 0 10 12 10 26 1 14 10 32
20 40 11 9 13 12 5 8 -11 -5 -13 -3 -8 10 4 10 7 24 7 32 0 9 4 13 8 10 4 -2
8 3 9 12 3 39 15 87 23 90 5 2 6 10 3 19 -5 12 -3 14 8 8 12 -8 12 -6 0 8 -7
9 -9 17 -4 17 8 0 12 17 13 63 1 9 5 15 10 12 6 -3 7 1 4 9 -3 9 -3 24 1 33 4
10 9 27 10 38 1 11 6 36 10 55 4 19 8 46 10 60 1 15 7 24 15 22 11 -3 11 0 1
12 -8 9 -10 23 -6 33 4 10 9 47 11 82 2 35 10 71 17 80 9 11 9 13 0 7 -10 -5
-11 4 -6 36 6 48 11 104 12 161 1 28 4 36 14 31 9 -6 9 -5 0 7 -9 11 -9 19 -2
26 8 8 8 13 0 17 -8 5 -8 13 0 28 9 16 8 19 -2 13 -8 -6 -10 -4 -3 6 5 8 7 22
5 33 -2 13 1 16 11 10 10 -6 11 -5 1 7 -9 11 -12 58 -10 161 1 80 -1 144 -5
141 -5 -2 -8 20 -9 49 -1 29 -3 69 -4 88 -2 19 -6 64 -9 100 -5 64 -15 149
-22 182 -1 10 3 18 9 18 9 0 9 2 0 8 -7 4 -14 34 -17 67 -3 33 -6 60 -6 60 -1
0 -3 16 -6 35 -2 19 -7 49 -10 65 -3 17 -7 44 -9 60 -1 17 -4 30 -5 30 -4 0
-13 59 -14 93 0 17 -5 32 -10 32 -5 0 -6 3 -3 6 3 4 2 15 -4 25 -7 14 -6 19 3
19 9 0 10 3 2 8 -10 6 -24 58 -29 107 -1 11 -7 32 -13 47 -6 15 -13 42 -15 60
-3 18 -8 41 -12 51 -4 9 -5 26 -2 37 3 11 1 18 -4 14 -5 -3 -9 -2 -10 3 -1 17
-8 42 -34 128 -15 50 -28 97 -29 105 -1 9 -5 20 -8 25 -3 6 -22 64 -43 130
-20 66 -43 134 -51 152 -8 17 -13 35 -12 40 1 4 -6 26 -16 48 -10 22 -19 50
-19 62 -1 11 -4 20 -7 18 -3 -2 -16 27 -29 63 -23 64 -36 95 -81 197 -11 25
-20 48 -20 52 0 5 -18 45 -40 91 -22 45 -41 88 -43 94 -1 7 -8 19 -14 26 -7 7
-13 22 -13 32 0 10 -4 20 -8 22 -5 2 -31 46 -59 99 -205 391 -519 780 -809
999 -32 25 -60 48 -62 53 -2 4 -9 7 -16 7 -7 0 -21 8 -32 18 -10 10 -48 34
-84 52 -36 19 -68 39 -71 43 -3 5 -9 8 -13 8 -3 -1 -23 6 -44 15 -64 27 -185
65 -257 79 -35 7 -291 16 -296 11z"/>
<path d="M2530 6019 c0 -5 5 -7 10 -4 6 3 10 8 10 11 0 2 -4 4 -10 4 -5 0 -10
-5 -10 -11z"/>
<path d="M2414 5979 c-3 -6 -2 -15 3 -20 5 -5 9 -1 9 11 0 23 -2 24 -12 9z"/>
<path d="M3127 5919 c7 -7 15 -10 18 -7 3 3 -2 9 -12 12 -14 6 -15 5 -6 -5z"/>
<path d="M4470 5789 c-25 -4 -65 -10 -90 -13 -82 -12 -212 -41 -278 -62 -10
-3 -5 -16 17 -46 23 -31 28 -44 18 -50 -8 -6 -6 -8 8 -6 14 2 20 -2 19 -14 -1
-10 2 -15 7 -12 5 3 12 -3 16 -13 4 -10 15 -27 25 -38 10 -10 16 -25 14 -32
-3 -7 0 -12 6 -10 7 1 17 -8 23 -20 5 -13 13 -23 18 -23 4 0 6 -3 4 -7 -3 -5
9 -21 26 -38 17 -16 25 -23 19 -15 -9 14 -1 18 58 29 38 7 74 10 80 6 5 -3 10
-1 10 6 0 7 3 10 6 7 3 -4 19 -2 35 2 18 5 27 5 24 -1 -4 -5 -1 -9 4 -9 6 0
11 5 11 10 0 6 5 10 11 10 5 0 8 -4 5 -8 -3 -5 1 -9 9 -9 8 0 12 4 9 9 -3 4 1
8 10 8 8 0 17 -6 19 -12 4 -10 6 -10 6 0 1 6 13 12 27 12 17 0 23 -4 18 -12
-6 -10 -4 -10 7 0 7 6 28 12 46 12 20 0 33 -5 33 -12 0 -10 2 -10 8 -1 7 12
62 13 62 1 0 -3 9 -4 20 -1 12 3 20 0 20 -6 0 -7 -4 -10 -9 -6 -5 3 -12 1 -15
-4 -4 -5 1 -8 10 -7 8 1 19 8 24 15 5 9 9 10 14 2 4 -6 12 -9 17 -6 5 4 15 3
22 -2 6 -4 17 -8 22 -10 37 -8 55 -13 90 -28 22 -9 49 -24 59 -33 16 -14 18
-14 12 -2 -4 8 -1 7 7 -3 9 -10 19 -19 24 -20 4 -1 7 -5 6 -9 -2 -4 4 -5 11
-2 9 3 22 -5 31 -20 10 -14 21 -26 27 -26 5 0 19 -10 31 -21 12 -12 15 -19 7
-15 -8 4 -1 -5 16 -21 47 -43 86 -107 78 -129 -4 -14 -3 -15 4 -5 7 9 11 10
17 2 4 -7 1 -19 -6 -27 -10 -12 -9 -13 6 -7 15 5 17 3 12 -11 -4 -10 -3 -15 3
-11 9 5 12 -8 9 -31 0 -4 4 -10 10 -13 10 -7 22 -54 25 -101 1 -14 5 -30 8
-35 3 -6 4 -20 3 -32 -1 -13 3 -23 8 -23 5 0 4 -6 -2 -14 -8 -10 -9 -16 -1
-21 15 -9 13 -38 -2 -29 -10 6 -10 4 0 -7 6 -7 12 -30 12 -52 0 -28 -3 -36
-12 -31 -10 6 -10 4 -2 -7 13 -15 13 -57 1 -76 -5 -8 -3 -13 3 -13 6 0 9 -4 6
-9 -3 -5 -8 -26 -12 -47 -3 -22 -8 -52 -11 -69 -3 -16 -6 -36 -6 -42 0 -7 -4
-13 -8 -13 -5 0 -6 -7 -3 -15 4 -8 1 -21 -5 -29 -6 -7 -9 -15 -6 -18 3 -2 0
-20 -6 -39 -6 -19 -13 -47 -16 -64 -3 -16 -9 -38 -14 -47 -5 -10 -8 -18 -5
-18 5 0 -67 -210 -88 -255 -36 -77 -64 -142 -71 -163 -3 -12 -11 -19 -17 -16
-6 4 -8 2 -5 -3 8 -13 -110 -253 -123 -253 -5 0 -6 -10 -2 -22 4 -13 7 -36 7
-53 0 -16 3 -32 6 -35 11 -8 14 -74 5 -89 -6 -10 -5 -12 2 -7 7 4 13 2 13 -3
1 -6 2 -19 3 -28 1 -10 6 -38 10 -62 5 -25 10 -70 12 -100 2 -31 4 -56 4 -56
1 0 3 -8 5 -18 2 -11 6 -21 9 -24 3 -3 1 -14 -5 -24 -6 -13 -6 -19 1 -19 5 0
10 5 10 11 0 6 7 9 15 6 8 -4 17 -1 21 5 4 7 3 8 -4 4 -23 -14 -11 12 21 46
17 20 33 42 35 49 6 24 23 38 40 32 13 -4 14 -3 3 5 -16 11 -5 36 11 26 7 -4
8 -2 4 4 -9 14 18 55 28 44 4 -4 7 -2 5 3 -4 17 13 65 21 60 4 -3 11 7 14 20
4 14 11 23 16 20 5 -3 12 0 16 6 4 8 3 9 -4 5 -7 -4 -12 -2 -12 3 0 6 5 11 11
11 5 0 7 5 4 10 -3 6 -1 10 4 10 6 0 10 6 9 13 -2 6 2 11 8 10 7 -1 10 6 7 16
-3 10 1 22 8 27 9 5 10 2 5 -12 -4 -10 -3 -15 1 -10 4 4 8 18 8 29 0 12 5 21
10 20 6 -1 11 10 10 25 0 15 5 26 11 25 6 -1 11 8 10 20 0 12 4 21 10 20 7 -1
11 5 10 15 0 10 5 16 14 14 12 -3 12 -1 3 9 -11 11 -7 42 6 35 3 -2 7 8 8 22
0 15 6 28 12 30 6 2 11 12 11 22 0 10 5 22 10 25 6 4 8 10 6 14 -3 4 3 17 14
28 10 12 17 23 14 26 -9 8 16 58 26 52 6 -3 7 1 4 9 -7 18 26 117 36 111 4 -3
5 6 3 19 -3 13 0 27 6 30 6 4 11 16 11 27 0 10 4 19 10 19 5 0 6 7 3 17 -4 11
-3 14 6 9 9 -6 10 -1 5 18 -3 15 -2 26 4 26 6 0 8 10 4 22 -3 14 -1 19 6 14 6
-3 14 -1 18 5 4 7 3 9 -4 5 -7 -4 -10 1 -9 14 1 11 5 20 9 20 4 0 5 7 2 15 -4
8 -2 15 2 15 5 0 10 10 11 23 3 44 13 91 21 96 4 3 7 20 6 36 0 17 2 35 5 40
3 6 6 21 7 35 1 14 2 25 3 25 2 0 5 29 8 65 3 36 10 68 16 72 7 4 7 8 2 8 -6
0 -10 14 -10 30 -1 17 2 30 5 30 5 0 4 54 -3 122 -2 20 0 43 4 50 4 7 4 17 -1
23 -4 5 -10 33 -13 60 -3 28 -8 58 -12 68 -5 11 -2 17 6 17 9 0 10 3 3 8 -9 6
-31 72 -37 112 -2 8 -5 20 -8 25 -4 6 -9 23 -13 38 -4 16 -18 52 -31 80 -14
28 -25 57 -25 64 0 7 -4 13 -9 13 -5 0 -16 15 -24 33 -9 18 -27 46 -41 62 -14
16 -24 31 -22 33 3 3 -39 45 -138 138 -23 22 -133 92 -183 118 -78 39 -175 72
-268 92 -11 3 -42 9 -70 15 -59 13 -380 19 -445 8z"/>
<path d="M3336 5767 c3 -10 9 -15 12 -12 3 3 0 11 -7 18 -10 9 -11 8 -5 -6z"/>
<path d="M2130 5711 c0 -6 4 -13 10 -16 6 -3 7 1 4 9 -7 18 -14 21 -14 7z"/>
<path d="M3516 5587 c3 -10 9 -15 12 -12 3 3 0 11 -7 18 -10 9 -11 8 -5 -6z"/>
<path d="M3375 5428 c-16 -6 -32 -14 -35 -17 -3 -3 -18 -13 -35 -22 -166 -90
-250 -141 -440 -270 -147 -99 -332 -241 -480 -368 -55 -47 -106 -90 -113 -96
-7 -5 -58 -53 -114 -105 -55 -52 -105 -94 -109 -92 -5 1 -8 -2 -7 -6 2 -4 -40
-51 -93 -104 -53 -53 -111 -115 -129 -137 -18 -22 -37 -38 -42 -35 -5 3 -7 1
-6 -4 2 -5 -23 -38 -55 -74 -32 -37 -69 -80 -81 -97 -13 -17 -26 -28 -29 -24
-4 3 -7 1 -7 -7 0 -7 -12 -27 -27 -44 -74 -86 -220 -273 -260 -333 -7 -10 -38
-53 -68 -96 -30 -42 -55 -82 -55 -87 0 -6 -4 -10 -10 -10 -5 0 -10 -4 -10 -9
0 -5 -26 -51 -59 -102 -32 -52 -74 -123 -93 -159 -20 -36 -45 -82 -57 -102
-25 -41 -21 -73 9 -83 11 -3 28 -17 39 -31 10 -13 24 -24 29 -24 15 0 42 -41
35 -53 -3 -6 -1 -7 6 -3 6 4 8 12 5 18 -5 7 -2 8 5 4 7 -5 10 -14 7 -22 -3 -8
0 -11 10 -7 8 3 22 -3 32 -13 18 -20 106 -69 97 -54 -7 12 16 60 26 54 5 -3 6
2 3 10 -4 11 0 16 12 16 15 0 16 2 5 9 -7 5 -10 14 -7 20 4 6 11 9 16 6 4 -3
6 3 4 12 -3 10 7 31 20 47 14 16 28 37 31 47 4 11 10 17 15 14 5 -3 12 0 16 6
4 8 3 9 -4 5 -7 -4 -12 -2 -12 3 0 6 5 11 11 11 5 0 7 5 3 11 -3 6 6 22 22 36
16 13 23 21 16 18 -11 -6 -12 -3 -2 14 6 12 15 19 20 16 6 -3 7 1 4 9 -3 9 -1
16 5 16 6 0 11 7 11 15 0 8 5 15 11 15 5 0 7 5 4 10 -3 6 -2 10 3 10 4 0 19
20 31 45 12 25 27 43 32 40 5 -4 6 0 4 7 -3 8 3 23 13 34 11 11 25 30 31 42 7
13 17 20 24 16 7 -4 9 -4 5 1 -8 9 22 65 34 65 4 0 8 6 8 13 0 15 31 47 42 44
3 -1 10 2 15 7 5 5 3 6 -4 2 -7 -4 -13 -2 -13 3 0 6 4 11 9 11 5 0 13 9 16 20
4 11 11 18 16 15 5 -4 9 -2 9 4 0 14 44 80 54 81 5 0 2 -8 -5 -17 -13 -16 -12
-17 3 -5 9 8 14 20 12 27 -3 7 4 19 16 25 11 6 25 22 30 36 5 13 15 23 22 22
8 -2 12 5 10 15 -2 9 4 20 13 23 8 3 15 10 15 15 0 15 34 49 48 49 7 0 11 4 8
9 -5 8 24 45 108 134 21 23 35 35 31 27 -5 -9 -4 -12 1 -7 5 5 9 14 9 20 1 7
7 11 14 9 7 -1 10 2 7 7 -9 15 50 75 65 66 7 -5 10 -4 5 3 -8 14 40 66 53 57
6 -3 9 0 6 7 -7 19 40 62 56 53 8 -5 10 -4 5 4 -10 15 36 59 54 53 7 -3 10 0
7 5 -8 13 48 67 61 59 6 -4 14 -1 18 5 4 8 3 9 -4 5 -7 -4 -12 -3 -12 3 0 5 9
13 20 16 11 4 18 11 15 16 -5 8 15 14 37 10 4 0 5 6 2 14 -5 11 -2 13 12 8 11
-4 15 -3 11 4 -4 6 8 22 25 37 24 20 34 23 41 13 6 -8 7 -7 4 4 -4 10 7 28 26
45 l32 29 -25 -30 -25 -30 26 23 c14 12 29 19 34 15 4 -5 5 -2 1 5 -8 14 12
45 24 37 4 -3 11 2 14 11 4 10 13 13 28 9 16 -4 19 -3 9 3 -10 7 -10 11 -1 17
7 4 16 1 22 -6 7 -10 8 -9 4 6 -4 15 3 26 29 43 18 13 39 21 44 17 7 -3 8 0 5
9 -3 9 -1 16 6 16 6 0 18 7 27 15 8 8 18 13 23 10 4 -3 10 5 13 16 3 12 10 18
16 14 6 -3 11 -1 11 4 0 6 4 11 10 11 5 0 7 -8 3 -17 -3 -10 -3 -15 1 -11 4 3
9 14 11 25 1 10 8 17 14 15 6 -1 11 2 11 8 0 5 27 28 61 50 52 36 62 40 77 28
15 -11 15 -11 4 3 -10 13 -10 18 1 28 8 6 17 8 20 4 4 -3 7 -2 7 4 0 13 49 46
67 46 7 0 14 6 17 14 3 7 15 13 27 13 12 0 19 3 16 7 -9 8 43 34 54 27 5 -3 8
0 7 8 -2 7 3 12 10 10 6 -1 12 3 12 9 0 6 7 8 16 5 8 -3 13 -2 11 2 -3 4 15
17 39 29 38 20 43 21 38 5 -3 -9 2 -4 11 11 9 15 20 25 25 22 6 -4 10 -2 10 4
0 5 14 16 30 25 19 9 28 10 24 3 -4 -7 2 -3 13 8 l20 20 -30 45 c-17 25 -48
66 -69 92 -23 28 -36 52 -32 59 4 7 3 9 -4 5 -6 -3 -28 11 -49 33 -35 36 -40
38 -68 29z"/>
<path d="M3793 5225 c0 -8 4 -12 9 -9 5 3 6 10 3 15 -9 13 -12 11 -12 -6z"/>
<path d="M2050 4982 c-25 -4 -42 -24 -46 -52 -1 -8 -5 -31 -8 -50 -4 -19 -9
-48 -12 -65 -3 -16 -12 -36 -22 -44 -14 -11 -14 -13 -1 -8 13 4 15 0 11 -21
-3 -15 -10 -30 -16 -34 -8 -5 -7 -8 2 -8 9 0 10 -5 3 -19 -6 -10 -8 -21 -4
-24 3 -4 1 -12 -5 -20 -8 -10 -5 -13 15 -15 31 -2 57 13 113 68 23 22 46 37
52 34 7 -4 8 -2 4 4 -4 7 -2 12 4 12 6 0 8 5 5 10 -6 9 8 14 27 11 5 0 7 5 5
12 -1 6 6 11 15 11 10 -1 17 1 16 5 -2 17 3 34 8 28 3 -3 21 10 39 30 19 21
37 33 44 29 6 -4 10 -3 9 2 -4 15 63 72 76 65 6 -3 8 -3 4 2 -4 4 -3 14 3 22
9 10 6 13 -17 14 -70 4 -301 4 -324 1z"/>
<path d="M1135 4835 c-325 -94 -612 -248 -814 -440 -55 -52 -97 -95 -94 -95 4
0 -3 -10 -14 -22 -55 -62 -153 -237 -153 -274 0 -8 -4 -13 -8 -10 -4 2 -8 -3
-9 -12 -3 -44 -8 -62 -16 -62 -4 0 -6 -3 -4 -7 3 -5 -1 -37 -9 -73 -15 -72
-10 -347 6 -367 2 -2 3 -12 4 -22 0 -11 4 -22 8 -26 4 -4 4 -13 1 -21 -3 -8 0
-14 7 -14 9 0 9 -4 -1 -17 -10 -11 -10 -14 -1 -9 11 6 17 -5 13 -26 0 -5 4 -8
10 -8 6 0 9 -7 6 -15 -4 -8 -2 -17 4 -21 6 -3 8 -12 5 -20 -3 -8 1 -17 10 -21
8 -3 13 -12 10 -19 -3 -8 -1 -14 5 -14 6 0 8 -7 5 -16 -3 -8 -2 -13 3 -10 11
7 32 -49 23 -60 -4 -4 -2 -4 5 0 7 4 17 -2 23 -15 10 -17 9 -20 -2 -13 -7 4 0
-5 15 -21 16 -17 26 -36 24 -46 -3 -11 0 -16 8 -13 7 3 16 -4 20 -15 3 -12 12
-21 18 -21 7 0 6 -4 -3 -10 -13 -9 -13 -10 0 -10 8 0 24 -12 34 -27 12 -16 14
-23 5 -18 -8 5 2 -8 21 -28 57 -58 80 -84 80 -91 0 -4 -5 -4 -12 0 -7 5 -8 3
-4 -5 5 -7 11 -10 14 -6 8 8 72 -56 72 -74 0 -8 3 -12 6 -8 8 7 80 -62 76 -74
-1 -5 4 -8 10 -7 7 2 11 -4 10 -12 -2 -8 0 -12 3 -8 11 11 47 -11 39 -24 -4
-6 -3 -8 3 -5 13 8 45 -27 36 -39 -5 -5 -4 -6 1 -2 13 11 48 -12 42 -27 -3 -9
0 -12 9 -9 8 3 31 -12 55 -34 22 -22 40 -38 40 -36 0 3 11 -6 24 -20 13 -15
27 -26 31 -26 11 0 45 -41 45 -54 0 -6 4 -5 9 3 6 9 11 10 15 2 4 -6 5 -15 2
-19 -3 -5 1 -9 9 -9 8 0 11 5 8 11 -7 12 38 -23 49 -39 4 -5 8 -6 8 -2 0 4 26
-9 58 -31 31 -21 78 -49 105 -62 26 -14 47 -28 47 -32 0 -5 7 -8 15 -8 8 0 15
-4 15 -9 0 -5 9 -11 21 -14 12 -3 18 -10 15 -15 -3 -6 2 -8 14 -5 14 4 20 0
20 -10 0 -9 4 -19 10 -22 6 -4 7 1 4 12 -5 16 -4 16 8 3 7 -8 20 -15 28 -15 8
0 14 -8 14 -18 -2 -14 1 -15 12 -6 11 9 18 8 32 -3 9 -8 32 -21 50 -29 18 -8
30 -19 28 -25 -3 -7 5 -9 21 -6 19 4 24 1 18 -7 -4 -8 -2 -12 6 -10 27 3 40
-1 34 -12 -4 -6 0 -9 11 -7 11 2 18 -2 17 -8 -1 -7 3 -11 10 -11 40 1 55 -5
60 -24 4 -16 9 -19 24 -11 21 11 80 -18 75 -37 -3 -15 15 -14 21 2 4 9 8 9 15
-1 5 -8 13 -14 18 -15 5 -1 8 -6 6 -11 -2 -5 3 -4 12 3 10 8 16 9 21 1 3 -5
15 -10 26 -10 10 0 19 -5 19 -11 0 -6 7 -8 15 -5 9 3 18 -1 21 -8 3 -8 14 -13
25 -11 10 2 19 -1 19 -7 0 -5 6 -8 14 -5 20 8 28 -4 13 -21 -10 -13 -9 -14 9
-2 18 11 27 11 55 -1 19 -7 37 -13 42 -11 4 1 7 -2 7 -8 0 -5 7 -7 15 -4 9 4
18 -1 21 -11 5 -13 9 -14 15 -3 7 10 9 11 9 0 0 -7 5 -10 10 -7 6 3 10 1 10
-5 0 -6 4 -8 10 -5 12 8 90 -15 90 -27 0 -5 6 -8 13 -7 27 3 38 -1 31 -13 -6
-10 -5 -10 8 -1 8 7 18 9 22 5 4 -4 11 -7 14 -7 35 -3 110 -31 105 -39 -4 -6
1 -5 10 3 9 7 17 9 17 3 0 -5 12 -9 26 -10 15 0 30 -6 35 -13 7 -12 9 -11 9 1
0 12 2 13 9 1 5 -7 13 -11 19 -7 6 3 22 2 37 -4 14 -5 40 -12 58 -15 17 -4 36
-10 42 -14 5 -5 18 -7 28 -6 9 2 17 0 17 -4 0 -4 12 -8 27 -9 15 -1 30 -7 34
-13 4 -8 8 -7 12 2 4 9 6 10 6 2 1 -7 8 -10 16 -7 8 4 15 1 15 -5 0 -6 7 -8
15 -5 9 4 15 0 15 -7 0 -11 3 -11 10 1 9 13 10 13 10 0 0 -13 1 -13 10 0 8 12
10 12 10 -5 0 -15 2 -17 9 -6 5 7 14 10 20 6 7 -4 29 -8 49 -10 58 -6 155 -26
176 -37 13 -7 16 -7 12 1 -4 6 -2 11 3 11 6 0 11 -5 11 -11 0 -5 4 -8 9 -5 5
4 12 0 14 -6 4 -9 6 -9 6 -1 1 6 10 9 21 6 11 -3 17 -9 14 -14 -3 -5 0 -9 5
-9 6 0 11 4 11 10 0 5 12 7 28 5 15 -2 45 -7 67 -10 22 -3 54 -6 70 -7 17 0
33 -6 37 -12 5 -7 8 -6 8 4 0 10 5 7 16 -8 8 -12 20 -22 26 -22 7 0 3 7 -8 15
-17 13 -13 14 46 9 36 -4 68 -11 72 -18 6 -8 8 -8 8 1 0 7 16 10 40 10 22 -1
40 -6 40 -11 0 -5 7 -3 15 4 11 9 15 9 15 1 0 -7 4 -9 10 -6 6 3 10 0 10 -7 0
-10 2 -10 9 1 5 8 16 11 26 8 9 -4 14 -11 10 -16 -3 -5 -1 -12 4 -16 6 -3 8 3
6 14 -3 19 9 22 32 8 6 -4 14 -3 17 1 3 5 17 7 32 4 20 -3 23 -7 12 -14 -13
-10 3 -6 41 10 10 4 12 1 6 -7 -6 -10 -3 -11 13 -2 25 13 35 14 28 3 -3 -5 1
-9 9 -9 8 0 12 4 9 9 -3 4 2 8 11 8 10 0 13 -5 9 -12 -5 -9 -2 -9 9 1 11 9 17
10 17 2 0 -6 5 -11 11 -11 5 0 7 4 4 10 -4 6 5 9 19 8 15 -1 26 -6 26 -10 0
-4 5 -8 11 -8 5 0 8 4 5 9 -3 5 10 9 28 8 19 0 33 -4 31 -7 -2 -4 2 -7 10 -7
8 0 12 4 9 8 -2 4 9 7 25 7 19 -1 28 -5 25 -12 -3 -6 2 -2 11 9 9 11 18 19 20
18 15 -9 25 0 25 22 0 14 4 25 8 25 4 0 7 12 6 28 -1 40 7 63 20 55 8 -4 8 -3
0 6 -11 12 -7 64 5 57 3 -2 5 10 5 27 -1 18 1 36 4 41 3 5 5 26 5 45 0 35 0
36 -39 34 -194 -7 -577 0 -694 12 -19 2 -69 7 -110 10 -94 7 -204 22 -295 40
-38 7 -92 16 -120 20 -88 11 -280 49 -430 85 -240 58 -613 184 -840 282 -106
46 -318 146 -355 167 -8 5 -73 42 -145 82 -71 40 -131 77 -133 81 -2 4 -8 8
-14 8 -6 0 -51 27 -100 60 -50 33 -94 60 -99 60 -5 0 -9 4 -9 8 0 5 -10 14
-22 20 -61 28 -320 260 -311 276 3 6 3 8 -2 4 -4 -4 -17 2 -27 15 -11 12 -34
38 -51 57 -45 49 -98 116 -140 177 -42 61 -110 193 -100 193 5 0 3 4 -3 8 -12
8 -46 114 -43 134 1 7 -2 22 -7 33 -15 34 -11 190 6 211 13 16 13 17 0 9 -9
-5 -7 1 5 15 11 13 14 20 8 16 -14 -8 -18 15 -5 28 7 7 8 11 11 37 0 5 5 7 11
4 5 -3 7 0 4 8 -6 17 41 103 55 100 6 -2 8 3 5 10 -2 7 10 28 27 47 16 19 27
29 23 21 -4 -9 -3 -12 4 -7 6 4 9 12 6 19 -2 7 9 25 26 40 16 15 30 24 30 20
0 -5 6 3 13 17 8 15 20 24 31 22 10 -2 15 1 12 7 -8 13 51 54 65 45 7 -4 9 -3
5 4 -6 10 62 59 77 54 4 -1 7 2 7 8 0 5 6 7 14 4 8 -3 17 0 22 7 5 8 3 10 -6
4 -9 -5 -11 -4 -6 3 4 7 16 12 27 12 10 0 19 5 19 10 0 6 3 9 8 8 4 -1 17 3
30 10 12 7 22 10 22 7 0 -4 7 1 16 9 16 17 40 21 47 9 2 -5 3 -3 1 3 -3 14 72
48 86 39 5 -3 10 -1 10 5 0 6 5 8 10 5 6 -3 10 -1 10 5 0 6 4 9 9 5 5 -3 13 0
16 6 4 5 13 8 20 5 8 -3 15 0 17 6 2 6 20 12 40 12 20 1 34 4 31 9 -2 4 2 7 9
7 8 0 14 10 15 23 2 77 8 117 17 117 6 0 4 5 -4 10 -8 5 -10 10 -4 10 6 0 9
15 8 35 -3 27 1 35 14 36 10 0 12 3 5 6 -7 2 -13 14 -13 24 0 14 4 18 13 13 9
-6 9 -5 0 8 -7 8 -11 17 -8 19 2 3 6 19 10 37 5 29 3 32 -18 30 -12 -1 -72
-16 -132 -33z"/>
<path d="M2279 4868 c-5 -18 -6 -38 -1 -34 7 8 12 36 6 36 -2 0 -4 -1 -5 -2z"/>
<path d="M3405 4838 c-97 -61 -281 -183 -327 -218 l-48 -35 28 -8 c15 -4 42
-9 60 -10 19 -2 38 -10 43 -18 6 -10 9 -10 9 -1 0 6 5 12 11 12 5 0 8 -4 5 -9
-4 -5 4 -7 16 -3 12 3 19 1 15 -5 -3 -5 0 -10 8 -10 8 0 12 5 8 10 -3 5 3 7
13 4 11 -3 37 -8 58 -12 22 -3 45 -13 53 -23 12 -16 13 -16 6 2 -5 15 -3 17 8
11 12 -8 35 -12 86 -17 7 -1 14 -7 17 -15 3 -7 11 -13 18 -13 9 0 8 3 -2 10
-13 8 -13 10 2 10 10 0 27 -10 38 -22 18 -20 20 -20 14 -4 -6 16 -4 18 12 11
16 -7 38 -11 67 -14 5 -1 5 -6 1 -12 -5 -8 -2 -9 12 -1 14 8 23 7 36 -5 12
-11 18 -12 18 -4 0 7 5 9 10 6 8 -5 7 -12 -2 -23 -11 -15 -11 -15 2 -5 18 13
67 11 97 -5 11 -6 24 -8 28 -4 5 4 5 -1 2 -11 -5 -13 -3 -16 6 -10 21 13 37
12 37 -2 0 -19 17 -28 26 -14 4 8 3 9 -4 5 -7 -4 -12 -2 -12 3 0 14 2 14 37
-1 15 -6 34 -12 41 -14 8 -1 21 -6 30 -10 9 -4 29 -9 44 -11 l27 -4 -24 56
c-14 30 -25 57 -25 60 -1 2 -12 28 -25 57 -13 28 -21 56 -18 61 3 6 1 7 -5 3
-8 -5 -12 0 -12 13 0 12 -5 21 -11 21 -6 0 -9 7 -5 15 3 8 2 15 -3 15 -4 0
-20 26 -34 58 l-27 58 -193 48 c-105 26 -199 49 -207 52 -8 2 -37 -11 -65 -28z"/>
<path d="M2815 4640 c-3 -5 -1 -10 4 -10 6 0 11 5 11 10 0 6 -2 10 -4 10 -3 0
-8 -4 -11 -10z"/>
<path d="M3306 4522 c-3 -5 1 -9 9 -9 8 0 12 4 9 9 -3 4 -7 8 -9 8 -2 0 -6 -4
-9 -8z"/>
<path d="M4792 4412 c2 -15 7 -30 12 -34 6 -4 4 -13 -4 -22 -11 -14 -10 -16 5
-10 14 6 16 3 10 -16 -5 -17 -4 -21 6 -15 9 6 11 4 6 -8 -3 -9 -2 -17 3 -19 5
-2 10 -14 12 -28 2 -14 7 -31 11 -37 5 -7 6 -17 3 -22 -4 -5 -2 -11 4 -13 5
-1 11 -12 13 -23 2 -11 7 -27 10 -35 4 -8 8 -26 9 -40 2 -14 8 -28 13 -32 6
-5 4 -12 -5 -18 -13 -8 -12 -10 4 -10 12 0 16 -5 12 -16 -4 -10 -2 -13 6 -8 7
5 9 2 5 -9 -4 -12 13 -26 71 -57 42 -23 82 -48 89 -57 10 -13 13 -12 19 11 3
14 9 26 13 26 4 0 8 10 8 22 1 13 7 24 12 26 5 2 7 10 4 18 -3 8 0 14 6 14 6
0 8 7 5 15 -4 8 -1 15 5 15 6 0 10 3 10 8 -5 27 2 52 13 46 6 -4 8 -3 5 3 -7
12 13 84 22 78 4 -2 6 7 6 20 -2 30 -27 49 -140 107 -49 26 -134 69 -188 97
l-98 50 3 -27z"/>
<path d="M2415 4300 c-3 -5 -1 -10 4 -10 6 0 11 5 11 10 0 6 -2 10 -4 10 -3 0
-8 -4 -11 -10z"/>
<path d="M2276 4182 c-2 -4 4 -8 14 -8 10 0 16 4 14 8 -3 4 -9 8 -14 8 -5 0
-11 -4 -14 -8z"/>
<path d="M2996 4143 c-186 -35 -359 -128 -497 -266 -40 -40 -83 -89 -97 -109
-13 -21 -29 -38 -34 -38 -5 0 -7 -4 -4 -8 3 -5 -3 -18 -12 -28 -10 -10 -19
-22 -20 -27 -1 -4 -13 -32 -27 -62 -14 -31 -25 -60 -25 -66 0 -6 -3 -8 -7 -6
-5 3 -9 -7 -10 -22 -1 -15 -9 -47 -17 -72 -8 -24 -18 -74 -22 -111 -4 -42 -11
-65 -17 -61 -6 4 -7 1 -1 -8 4 -8 9 -48 10 -91 1 -42 5 -81 8 -87 4 -6 2 -11
-5 -11 -8 0 -8 -4 -1 -13 6 -6 13 -28 15 -47 3 -19 6 -35 7 -35 4 0 12 -42 14
-67 0 -14 3 -25 5 -22 4 3 49 -97 54 -121 1 -5 8 -16 15 -24 7 -7 11 -20 8
-28 -3 -8 -2 -12 3 -8 10 6 54 -60 54 -81 0 -7 4 -11 8 -8 10 6 34 -36 31 -56
-1 -10 1 -11 4 -2 3 6 11 12 16 12 6 0 8 -3 5 -7 -4 -3 2 -12 13 -20 11 -8 20
-20 20 -28 0 -8 5 -17 12 -21 7 -5 8 -3 3 7 -5 7 12 -4 38 -26 25 -21 44 -42
41 -47 -3 -5 -2 -8 3 -7 16 4 64 -21 69 -36 4 -8 11 -15 18 -15 6 0 45 -17 86
-39 41 -21 80 -39 85 -40 6 -2 12 -5 15 -8 3 -4 -1 -3 -9 2 -10 6 -12 4 -7 -4
6 -9 11 -9 21 -1 14 12 40 -11 27 -25 -4 -5 -1 -5 6 -1 7 4 9 12 6 18 -4 6 3
5 16 -2 12 -6 24 -9 28 -6 3 3 14 -1 24 -11 12 -11 18 -12 18 -3 0 9 7 7 26
-5 15 -9 23 -12 20 -6 -4 6 -3 11 2 11 5 0 14 -10 21 -22 6 -13 10 -16 7 -7
-3 12 6 15 45 16 27 0 46 -4 43 -8 -3 -5 0 -9 5 -9 6 0 11 5 11 10 0 6 5 10
11 10 5 0 7 -5 3 -12 -5 -7 -3 -8 7 -3 7 5 26 9 42 10 21 1 27 -2 22 -14 -3
-11 -1 -10 9 3 9 10 22 16 30 13 9 -4 18 -2 22 4 4 6 12 5 22 -3 13 -11 14
-11 7 1 -6 11 -1 13 23 9 17 -2 29 -1 27 3 -3 4 3 9 13 12 9 2 26 8 36 13 14
5 17 4 12 -4 -4 -7 8 -3 26 8 19 11 43 21 54 23 11 1 36 12 55 24 28 16 40 18
55 10 17 -9 17 -9 6 5 -11 14 -8 17 17 26 16 6 32 7 36 4 4 -4 5 -2 3 3 -2 6
0 11 4 13 4 1 18 12 31 25 56 52 83 71 95 69 7 -2 11 1 10 5 -3 8 3 16 67 92
63 75 92 117 110 159 10 23 22 42 27 42 4 0 7 3 7 8 -4 22 3 31 19 26 13 -5
14 -4 3 4 -10 7 -10 14 -2 29 5 11 7 23 4 27 -3 3 -2 6 4 6 5 0 10 6 10 13 1
24 8 41 23 57 13 12 13 13 1 5 -12 -8 -13 -6 -8 8 4 10 7 25 7 33 0 9 4 13 8
10 5 -3 6 9 4 26 -3 19 1 33 9 39 11 7 11 9 1 9 -7 0 -10 4 -7 10 9 14 9 158
0 225 -4 33 -9 67 -10 75 -1 8 -4 22 -8 30 -14 35 -26 94 -20 103 3 6 1 7 -5
3 -7 -4 -12 -1 -12 6 0 35 -94 203 -155 276 -36 43 -124 125 -183 169 -60 45
-193 116 -252 134 -144 44 -359 58 -494 32z"/>
<path d="M1519 4113 c-13 -16 -12 -17 4 -4 9 7 17 15 17 17 0 8 -8 3 -21 -13z"/>
<path d="M520 4106 c0 -2 7 -7 16 -10 8 -3 12 -2 9 4 -6 10 -25 14 -25 6z"/>
<path d="M2176 4082 c-3 -5 1 -9 9 -9 8 0 12 4 9 9 -3 4 -7 8 -9 8 -2 0 -6 -4
-9 -8z"/>
<path d="M5781 3750 c-6 -22 -16 -40 -22 -40 -6 0 -8 -4 -5 -9 4 -5 -2 -29
-13 -53 -46 -107 -63 -145 -75 -167 -12 -22 -11 -27 8 -46 74 -77 97 -106 91
-115 -4 -6 -1 -9 7 -8 7 2 12 -3 10 -10 -1 -8 2 -11 7 -7 11 6 33 -28 26 -39
-3 -3 -2 -4 1 -1 8 5 34 -20 34 -34 0 -6 3 -11 8 -11 8 0 54 -66 53 -75 -1 -3
5 -12 13 -21 8 -8 12 -22 9 -31 -4 -10 -2 -14 4 -10 10 6 38 -43 33 -59 -1 -4
3 -10 10 -14 6 -4 12 -17 13 -28 1 -12 4 -22 8 -22 13 0 17 -38 5 -50 -8 -9
-7 -11 3 -8 10 2 17 -11 23 -42 4 -25 6 -51 3 -58 -3 -7 0 -10 5 -7 13 8 6
-168 -10 -225 -18 -70 -61 -160 -73 -153 -5 3 -7 1 -4 -4 13 -21 -127 -183
-218 -251 -79 -60 -294 -175 -345 -184 -3 -1 -27 -11 -55 -23 -27 -12 -80 -30
-117 -41 -54 -15 -68 -23 -70 -39 -2 -24 -5 -48 -8 -55 -2 -5 -6 -73 -9 -133
-1 -28 -4 -36 -13 -31 -9 5 -9 2 1 -9 7 -9 10 -17 5 -17 -12 0 -12 -106 0
-117 6 -5 6 -2 1 6 -6 11 -4 13 8 8 10 -4 17 -1 17 6 0 8 4 6 10 -3 7 -12 10
-12 10 -1 0 7 6 11 15 8 8 -4 17 -2 20 3 3 4 16 7 30 6 15 -2 22 1 18 7 -4 6
0 8 10 4 10 -3 17 -2 17 3 0 5 7 6 17 3 12 -5 14 -3 8 8 -7 11 -5 11 10 -1 11
-9 16 -10 11 -2 -4 7 -2 12 6 13 27 3 34 4 56 17 20 12 26 9 23 -11 -1 -5 3
-6 8 -2 6 3 7 13 4 23 -3 9 -3 14 1 10 4 -3 31 4 61 17 29 13 56 21 59 18 3
-4 6 -2 6 4 0 10 39 26 65 27 6 1 19 9 30 19 10 10 25 15 33 12 7 -2 11 -1 8
4 -3 5 1 12 10 15 8 3 13 2 10 -2 -3 -5 1 -9 8 -9 9 0 12 7 8 16 -3 9 -2 13 3
9 4 -4 14 0 22 8 9 8 22 13 29 10 8 -3 14 1 14 10 0 8 4 13 9 10 5 -3 12 1 15
10 3 8 10 12 16 9 5 -3 10 0 10 7 0 9 3 9 10 -2 9 -13 10 -13 10 0 0 14 121
110 139 110 5 0 11 7 15 15 3 8 13 15 22 15 10 0 15 3 11 6 -8 8 34 54 45 48
4 -3 8 0 8 6 0 6 4 9 9 6 5 -3 8 2 7 12 0 9 5 16 12 14 6 -1 12 4 12 12 0 7
11 21 24 32 14 10 23 21 20 26 -3 4 2 8 11 8 9 0 14 4 11 9 -3 5 5 20 17 33
13 14 31 42 41 62 10 21 22 34 28 30 7 -4 8 -2 4 4 -4 6 2 30 14 54 11 23 20
48 20 55 0 7 4 13 10 13 5 0 9 3 8 8 -4 17 15 82 24 82 5 0 7 4 4 9 -10 16 6
71 18 64 7 -4 7 -2 -1 7 -7 8 -9 20 -3 35 9 23 5 256 -5 310 -3 17 -6 37 -8
45 -1 8 -5 20 -8 25 -3 6 -5 19 -5 30 1 11 -1 22 -4 25 -5 5 -28 63 -34 85 -9
33 -84 179 -117 227 -21 32 -39 62 -39 67 0 5 -3 11 -7 13 -5 2 -35 39 -68 83
-57 76 -278 305 -294 305 -4 0 -13 -18 -20 -40z"/>
<path d="M1668 3463 c7 -3 16 -2 19 1 4 3 -2 6 -13 5 -11 0 -14 -3 -6 -6z"/>
<path d="M1715 3229 c-50 -72 -98 -139 -107 -150 -10 -10 -17 -22 -17 -25 2
-7 -19 -40 -39 -60 -7 -8 -10 -14 -6 -14 4 0 -1 -9 -10 -19 -15 -16 -16 -27
-9 -63 5 -24 9 -53 8 -65 -1 -12 2 -20 7 -17 4 3 9 -6 9 -20 2 -30 2 -33 13
-64 5 -14 3 -28 -5 -38 -10 -12 -9 -13 4 -8 12 4 15 0 13 -20 -2 -14 0 -23 4
-21 12 8 17 -54 6 -65 -8 -8 -6 -9 5 -5 13 5 18 -2 23 -29 4 -20 12 -36 17
-36 6 0 18 -8 27 -18 10 -10 13 -12 8 -5 -12 18 -1 16 18 -3 9 -9 22 -17 29
-18 36 -6 57 -19 57 -34 0 -13 2 -14 8 -4 9 13 42 6 42 -9 0 -5 3 -8 8 -7 13
4 52 -13 52 -22 0 -5 7 -6 17 -3 10 4 14 2 10 -4 -4 -6 0 -14 9 -17 8 -3 12
-2 9 4 -4 6 5 5 19 -1 14 -7 23 -16 20 -20 -3 -5 1 -6 9 -3 7 2 26 0 40 -5 30
-12 31 -3 8 53 -6 16 -10 35 -7 42 3 7 0 14 -5 16 -12 4 -50 148 -42 161 3 6
1 7 -4 4 -6 -4 -13 2 -16 13 -3 11 0 20 6 20 8 0 7 3 -1 9 -8 4 -12 14 -11 22
1 8 -3 27 -10 43 -6 16 -9 31 -6 34 2 3 0 11 -6 18 -6 8 -12 31 -12 53 -1 21
-6 36 -11 33 -5 -3 -7 2 -3 10 3 9 3 19 -1 22 -3 4 -8 14 -10 24 -10 52 -15
80 -15 105 -1 15 -4 27 -7 27 -4 0 -7 6 -8 13 -1 6 -3 26 -5 42 -2 17 -7 41
-10 55 -3 14 -9 45 -12 70 -3 25 -9 62 -14 82 -5 20 -6 39 -3 42 3 4 3 6 1 6
-3 0 -45 -59 -94 -131z"/>
<path d="M1319 2913 c-13 -16 -12 -17 4 -4 9 7 17 15 17 17 0 8 -8 3 -21 -13z"/>
<path d="M4439 2553 c-73 -103 -439 -473 -576 -582 -23 -19 -40 -37 -38 -41 2
-4 25 -7 50 -6 36 1 44 -2 40 -13 -5 -12 -2 -11 12 2 11 9 24 13 31 8 7 -4 38
-7 70 -6 31 1 65 -2 76 -8 12 -6 16 -6 12 1 -6 11 69 10 80 -1 4 -4 12 -7 18
-7 6 0 4 5 -4 10 -13 8 -13 10 2 10 9 0 20 -4 23 -10 3 -5 12 -10 18 -10 8 0
8 3 -1 9 -11 6 -9 9 6 13 11 3 26 1 33 -6 9 -8 10 -8 5 2 -4 6 -2 12 3 12 6 0
11 -4 11 -10 0 -5 4 -10 10 -10 5 0 7 8 3 18 -3 9 -3 14 2 10 4 -4 23 11 43
33 26 29 38 36 44 27 7 -10 8 -9 6 2 -3 19 23 60 38 60 13 0 16 480 4 500 -5
9 -12 6 -21 -7z"/>
<path d="M2546 2438 c3 -5 10 -6 15 -3 13 9 11 12 -6 12 -8 0 -12 -4 -9 -9z"/>
<path d="M1790 2420 c0 -5 5 -10 11 -10 5 0 7 5 4 10 -3 6 -8 10 -11 10 -2 0
-4 -4 -4 -10z"/>
<path d="M2633 2385 c0 -8 4 -12 9 -9 5 3 6 10 3 15 -9 13 -12 11 -12 -6z"/>
<path d="M3590 2310 c-9 -6 -10 -10 -3 -10 6 0 15 5 18 10 8 12 4 12 -15 0z"/>
<path d="M2775 2300 c3 -5 8 -10 11 -10 2 0 4 5 4 10 0 6 -5 10 -11 10 -5 0
-7 -4 -4 -10z"/>
<path d="M661 2243 c-5 -21 -13 -55 -17 -76 -3 -20 -10 -39 -14 -42 -5 -3 -6
-14 -3 -25 3 -11 1 -20 -3 -20 -5 0 -9 -12 -10 -27 -1 -25 -5 -60 -20 -158 -2
-16 -6 -67 -8 -112 -2 -45 -7 -87 -11 -94 -5 -7 -4 -10 2 -6 6 4 11 -20 12
-66 1 -80 7 -133 17 -149 5 -7 2 -8 -7 -3 -12 7 -12 6 -1 -7 7 -9 14 -32 15
-52 1 -20 5 -36 8 -36 4 0 9 -11 11 -25 4 -16 1 -22 -6 -18 -6 4 -4 -1 4 -11
14 -17 18 -31 22 -68 1 -10 6 -18 10 -18 4 0 8 -7 8 -15 0 -8 9 -29 20 -47 11
-18 20 -39 20 -45 0 -7 9 -22 20 -33 11 -11 20 -27 20 -35 0 -8 5 -15 10 -15
6 0 10 -7 10 -15 0 -8 9 -23 21 -34 13 -11 18 -24 14 -32 -5 -7 -4 -10 2 -6
10 6 36 -15 30 -24 -1 -2 0 -3 2 -1 8 4 41 -31 41 -45 0 -7 5 -13 10 -13 10 0
49 -32 94 -75 12 -12 26 -22 31 -24 6 -2 9 -7 8 -11 -1 -4 5 -7 15 -6 9 0 16
-5 14 -12 -1 -7 3 -12 10 -11 28 3 38 -2 38 -18 0 -15 2 -16 10 -3 9 14 15 6
10 -15 -1 -5 2 -7 6 -3 4 4 14 2 22 -5 13 -9 14 -9 8 1 -12 20 2 13 30 -15 15
-16 22 -20 15 -11 -10 14 -9 16 8 11 19 -5 26 -15 22 -36 -1 -5 3 -6 9 -2 6 3
8 10 5 15 -3 5 18 2 47 -7 29 -9 59 -16 66 -16 11 0 16 -11 13 -30 -1 -5 3 -6
9 -2 6 3 8 11 5 16 -9 13 19 11 33 -3 7 -7 12 -8 12 -4 0 5 8 2 17 -5 14 -12
16 -12 9 0 -6 9 -5 12 5 9 8 -3 13 -11 11 -18 -3 -11 0 -11 13 0 12 10 21 10
40 2 18 -8 25 -9 25 -1 0 8 4 8 13 0 8 -6 17 -8 20 -4 4 3 7 1 7 -5 0 -7 5
-12 11 -12 5 0 8 4 5 8 -7 12 58 9 66 -3 5 -6 8 -4 8 5 0 13 1 13 10 0 8 -13
10 -13 10 -1 0 11 4 10 16 -5 8 -10 13 -14 10 -8 -3 7 1 14 9 18 8 3 15 0 15
-7 0 -7 3 -8 8 -2 6 9 57 15 169 19 24 0 43 3 43 6 0 3 8 6 18 7 9 0 31 3 47
7 56 10 110 18 130 20 11 0 23 6 27 11 5 6 8 5 8 -3 0 -10 4 -9 17 3 9 10 26
15 39 12 13 -2 21 0 18 4 -3 5 0 9 6 9 12 0 0 28 -22 52 -17 18 -78 107 -78
114 0 3 -5 10 -11 17 -5 7 -27 37 -48 67 -25 37 -44 55 -57 54 -22 -2 -78 -11
-114 -19 -116 -25 -341 -25 -465 -1 -89 17 -235 72 -235 88 0 4 -6 8 -13 8
-19 0 -135 115 -146 145 -2 6 -10 15 -17 20 -28 21 -97 173 -108 237 -2 15 -7
31 -9 35 -3 5 -8 35 -12 68 -3 33 -8 62 -10 64 -3 2 0 11 5 21 5 10 6 21 2 25
-9 9 -10 85 -1 79 4 -2 4 9 -1 25 -4 16 -6 32 -3 35 3 3 7 22 8 43 1 27 6 37
16 35 11 -3 12 -1 2 9 -14 14 -18 43 -5 36 4 -3 6 12 6 34 -1 21 1 39 5 39 3
0 7 18 8 40 1 22 -2 40 -6 40 -9 0 -259 167 -278 186 -20 20 -21 19 -32 -23z"/>
<path d="M975 2260 c-3 -6 1 -7 9 -4 18 7 21 14 7 14 -6 0 -13 -4 -16 -10z"/>
<path d="M2995 2231 c-3 -5 -2 -12 3 -15 5 -3 9 1 9 9 0 17 -3 19 -12 6z"/>
<path d="M3115 2220 c3 -5 8 -10 11 -10 2 0 4 5 4 10 0 6 -5 10 -11 10 -5 0
-7 -4 -4 -10z"/>
<path d="M1150 2160 c0 -5 5 -10 10 -10 6 0 10 5 10 10 0 6 -4 10 -10 10 -5 0
-10 -4 -10 -10z"/>
<path d="M3866 1898 c3 -4 11 -5 19 -1 21 7 19 12 -4 10 -11 0 -18 -5 -15 -9z"/>
<path d="M5675 1680 c3 -5 8 -10 11 -10 2 0 4 5 4 10 0 6 -5 10 -11 10 -5 0
-7 -4 -4 -10z"/>
<path d="M2656 1567 c3 -10 9 -15 12 -12 3 3 0 11 -7 18 -10 9 -11 8 -5 -6z"/>
<path d="M2700 1566 c0 -2 8 -10 18 -17 15 -13 16 -12 3 4 -13 16 -21 21 -21
13z"/>
<path d="M2755 1540 c-3 -5 -1 -10 4 -10 6 0 11 5 11 10 0 6 -2 10 -4 10 -3 0
-8 -4 -11 -10z"/>
<path d="M3346 1421 c-4 -5 3 -7 14 -4 23 6 26 13 6 13 -8 0 -17 -4 -20 -9z"/>
<path d="M2869 1282 c-83 -44 -105 -59 -102 -73 3 -10 12 -20 21 -24 14 -5 14
-7 2 -15 -13 -8 -12 -10 2 -10 10 0 23 -10 29 -22 14 -26 28 -43 52 -66 9 -9
17 -21 17 -27 0 -6 9 -16 20 -23 12 -7 18 -17 15 -23 -4 -5 -1 -8 7 -7 7 2 12
-5 12 -14 -1 -10 1 -17 5 -16 3 1 14 -2 24 -7 10 -4 23 -2 30 4 10 8 17 7 26
-2 7 -6 11 -7 9 -2 -2 6 1 11 6 12 5 1 12 5 15 11 8 12 101 65 101 58 0 -4 12
5 27 19 18 16 34 23 47 19 12 -4 16 -2 12 5 -4 6 5 16 21 23 15 7 37 21 47 30
10 10 23 15 28 12 4 -3 8 -1 8 4 0 16 33 24 43 10 6 -9 7 -8 3 5 -4 11 0 20
12 24 9 4 21 12 25 20 10 17 31 17 21 1 -4 -8 -3 -10 2 -5 5 5 9 13 9 17 0 5
9 16 20 24 20 15 19 15 -5 17 -78 4 -158 15 -335 46 -49 8 -103 17 -120 19
-16 3 -34 6 -40 8 -5 1 -58 -22 -116 -52z"/>
<path d="M3315 1120 c-3 -5 -1 -10 4 -10 6 0 11 5 11 10 0 6 -2 10 -4 10 -3 0
-8 -4 -11 -10z"/>
<path d="M3113 985 c0 -8 4 -12 9 -9 5 3 6 10 3 15 -9 13 -12 11 -12 -6z"/>
<path d="M856 883 c-6 -14 -5 -15 5 -6 7 7 10 15 7 18 -3 3 -9 -2 -12 -12z"/>
<path d="M2405 780 c-3 -6 1 -7 9 -4 18 7 21 14 7 14 -6 0 -13 -4 -16 -10z"/>
<path d="M2033 595 c0 -8 4 -12 9 -9 5 3 6 10 3 15 -9 13 -12 11 -12 -6z"/>
<path d="M1496 582 c-3 -5 1 -9 9 -9 8 0 12 4 9 9 -3 4 -7 8 -9 8 -2 0 -6 -4
-9 -8z"/>
<path d="M1935 580 c3 -5 8 -10 11 -10 2 0 4 5 4 10 0 6 -5 10 -11 10 -5 0 -7
-4 -4 -10z"/>
<path d="M1625 560 c-3 -6 1 -7 9 -4 18 7 21 14 7 14 -6 0 -13 -4 -16 -10z"/>
<path d="M2960 239 c0 -5 5 -7 10 -4 6 3 10 8 10 11 0 2 -4 4 -10 4 -5 0 -10
-5 -10 -11z"/>
<path d="M2990 219 c0 -5 5 -7 10 -4 6 3 10 8 10 11 0 2 -4 4 -10 4 -5 0 -10
-5 -10 -11z"/>
<path d="M3153 125 c0 -8 4 -12 9 -9 5 3 6 10 3 15 -9 13 -12 11 -12 -6z"/>
<path d="M3296 62 c-3 -5 1 -9 9 -9 8 0 12 4 9 9 -3 4 -7 8 -9 8 -2 0 -6 -4
-9 -8z"/>
<path d="M3993 25 c0 -8 4 -12 9 -9 5 3 6 10 3 15 -9 13 -12 11 -12 -6z"/>
</g>
</svg>
