<?xml version="1.0" standalone="no"?>
<!DOCTYPE svg PUBLIC "-//W3C//DTD SVG 20010904//EN"
 "http://www.w3.org/TR/2001/REC-SVG-20010904/DTD/svg10.dtd">
<svg version="1.0" xmlns="http://www.w3.org/2000/svg"
 width="144.000000pt" height="144.000000pt" viewBox="0 0 144.000000 144.000000"
 preserveAspectRatio="xMidYMid meet">
<metadata>
Created by potrace 1.11, written by Peter Selinger 2001-2013
</metadata>
<g transform="translate(0.000000,144.000000) scale(0.100000,-0.100000)"
fill="#000000" stroke="none">
<path d="M390 1357 c-90 -29 -144 -132 -145 -279 l0 -86 -50 -25 c-110 -54
-195 -162 -195 -247 0 -85 85 -193 195 -247 l50 -25 1 -91 c2 -142 42 -225
127 -266 78 -38 185 -21 297 48 l50 31 50 -31 c202 -124 366 -76 416 120 10
39 15 89 12 126 l-4 62 63 33 c107 55 183 155 183 240 0 85 -76 185 -183 240
l-62 33 -1 86 c0 108 -23 180 -73 230 -37 37 -95 61 -148 61 -48 0 -134 -29
-195 -67 l-58 -34 -57 34 c-100 60 -194 79 -273 54z m138 -87 c19 -5 54 -21
78 -35 l45 -26 -68 -72 -67 -72 -86 -17 c-47 -10 -88 -18 -92 -18 -14 0 -9 94
7 147 27 89 88 121 183 93z m521 -16 c20 -16 36 -44 46 -77 16 -53 21 -147 8
-147 -5 0 -46 8 -93 18 l-86 17 -67 72 -68 71 37 23 c90 55 174 64 223 23z
m-289 -139 l34 -35 -74 0 -74 0 34 35 c19 19 37 35 40 35 3 0 21 -16 40 -35z
m87 -131 c24 -5 40 -22 80 -87 29 -45 62 -103 74 -129 l23 -48 -23 -47 c-12
-27 -45 -85 -73 -129 -59 -93 -59 -94 -208 -94 -149 0 -149 1 -208 94 -28 44
-61 102 -73 129 l-23 47 23 48 c44 91 125 211 146 215 33 7 230 7 262 1z
m-409 -32 c-1 -4 -16 -31 -32 -60 -32 -56 -39 -55 -51 9 -6 34 -5 36 27 46 41
14 61 15 56 5z m625 -8 c30 -7 32 -12 16 -68 l-11 -38 -34 56 c-39 66 -40 69
-16 62 9 -3 29 -8 45 -12z m-775 -122 c13 -42 24 -88 24 -102 0 -19 -39 -163
-48 -178 -1 -2 -17 4 -36 14 -181 93 -183 231 -3 327 17 9 32 16 35 17 3 0 16
-35 28 -78z m1012 -3 c65 -67 65 -134 -1 -200 -47 -47 -118 -86 -123 -67 -3 7
-16 48 -29 91 l-26 77 26 78 c13 42 26 83 29 90 6 19 77 -20 124 -69z m-891
-278 c18 -29 30 -55 27 -58 -8 -8 -86 20 -86 31 0 17 21 88 25 84 1 -1 17 -27
34 -57z m676 -2 c7 -36 6 -36 -36 -47 -24 -6 -45 -10 -47 -8 -1 2 12 28 30 59
35 58 41 58 53 -4z m-634 -153 c63 -12 70 -17 132 -82 l66 -69 -22 -17 c-32
-26 -122 -58 -161 -58 -79 0 -135 81 -136 199 0 53 0 53 28 47 15 -3 57 -12
93 -20z m659 -28 c-1 -117 -57 -198 -136 -198 -38 0 -129 32 -161 58 l-23 17
72 73 c50 51 78 72 97 73 14 0 46 6 71 13 79 23 80 23 80 -36z m-353 -35 l-37
-38 -37 38 -38 37 75 0 75 0 -38 -37z"/>
<path d="M642 879 c-96 -48 -128 -169 -69 -258 47 -71 136 -99 214 -66 50 21
72 42 94 90 70 152 -91 309 -239 234z"/>
</g>
</svg>
